<?xml version="1.0" encoding="UTF-8"?>
<svg id="Layer_2" data-name="Layer 2" xmlns="http://www.w3.org/2000/svg" viewBox="0 0 183.13 183.13">
  <defs>
    <style>
      .cls-1 {
        fill: #fff;
      }

      .cls-2 {
        fill: #f0f3ff;
      }

      .cls-2, .cls-3, .cls-4, .cls-5, .cls-6, .cls-7 {
        stroke-miterlimit: 10;
      }

      .cls-2, .cls-3, .cls-4, .cls-5, .cls-7 {
        stroke: #72798e;
      }

      .cls-2, .cls-3, .cls-7 {
        stroke-width: 3px;
      }

      .cls-3, .cls-5 {
        stroke-linecap: round;
      }

      .cls-3, .cls-6 {
        fill: #b2b8ce;
      }

      .cls-4, .cls-5 {
        fill: none;
      }

      .cls-4, .cls-6 {
        stroke-width: 5px;
      }

      .cls-5 {
        stroke-width: 4px;
      }

      .cls-8 {
        fill: #72798e;
      }

      .cls-6 {
        stroke: #b2b8ce;
      }

      .cls-7 {
        fill: #dce2ff;
      }
    </style>
  </defs>
  <g id="Layer_1-2" data-name="Layer 1">
    <circle class="cls-1" cx="91.57" cy="91.57" r="91.57"/>
    <g>
      <rect class="cls-7" x="37.05" y="57.19" width="108.41" height="83.05" rx="41.53" ry="41.53"/>
      <rect class="cls-2" x="56.13" y="75.57" width="70.27" height="35.22" rx="17.61" ry="17.61"/>
      <g>
        <path class="cls-5" d="m69.37,97.19c.52-4.76,4.18-8.23,8.22-8.01,3.76.21,6.96,3.59,7.44,8.01"/>
        <path class="cls-5" d="m98.14,97.19c.52-4.76,4.18-8.23,8.22-8.01,3.76.21,6.96,3.59,7.44,8.01"/>
      </g>
      <g>
        <path class="cls-3" d="m41.82,115.49c-9.13,0-16.53-7.4-16.53-16.53s7.4-16.53,16.53-16.53"/>
        <path class="cls-3" d="m141.31,115.49c9.13,0,16.53-7.4,16.53-16.53,0-9.13-7.4-16.53-16.53-16.53"/>
        <path class="cls-8" d="m147.55,85.06c-3.56-28.53-27.84-50-56.51-50-.06,0-.12,0-.18,0-28.48.09-52.69,21.5-56.32,49.82l-6.59,2.96c4-31.29,31.41-58.68,62.89-58.77.06,0,.13,0,.19,0,31.7,0,58.86,26.01,62.79,57.54l-6.28-1.54Z"/>
      </g>
      <path class="cls-4" d="m148.09,103.71c.46,2.58,2.79,17.19-7.02,30.83-9.72,13.51-24.12,16.02-26.75,16.43"/>
      <path class="cls-6" d="m118.68,151.04c0,2.45-3.81,3.03-8.35,3.03s-8.09-.58-8.09-3.03,3.68-4.43,8.22-4.43,8.22,1.99,8.22,4.43Z"/>
    </g>
    <path class="cls-5" d="m64.74,120.3c2.02,1.83,12.51,10.96,28.17,10.17,13.22-.66,21.84-7.97,24.26-10.17"/>
  </g>
</svg>