<?xml version="1.0" encoding="UTF-8"?>
<svg id="Layer_2" data-name="Layer 2" xmlns="http://www.w3.org/2000/svg" viewBox="0 0 135.55 124.29">
  <defs>
    <style>
      .cls-1 {
        fill: #dce2ff;
      }

      .cls-1, .cls-2, .cls-3, .cls-4, .cls-5, .cls-6, .cls-7 {
        stroke: #b2b8ce;
        stroke-miterlimit: 10;
      }

      .cls-1, .cls-4, .cls-7 {
        stroke-width: 3px;
      }

      .cls-2, .cls-3 {
        stroke-width: 5px;
      }

      .cls-2, .cls-5, .cls-6 {
        fill: none;
      }

      .cls-3, .cls-4 {
        fill: #b2b8ce;
      }

      .cls-5 {
        stroke-width: 4px;
      }

      .cls-6 {
        stroke-width: 6px;
      }

      .cls-7 {
        fill: #f0f3ff;
      }
    </style>
  </defs>
  <g id="Layer_1-2" data-name="Layer 1">
    <rect class="cls-1" x="13.27" y="24.91" width="108.41" height="83.05" rx="41.53" ry="41.53"/>
    <rect class="cls-7" x="32.34" y="43.29" width="70.27" height="35.22" rx="17.61" ry="17.61"/>
    <g>
      <path class="cls-5" d="m45.59,64.91c.52-4.76,4.18-8.23,8.22-8.01,3.76.21,6.96,3.59,7.44,8.01"/>
      <path class="cls-5" d="m74.35,64.91c.52-4.76,4.18-8.23,8.22-8.01,3.76.21,6.96,3.59,7.44,8.01"/>
    </g>
    <g>
      <path class="cls-4" d="m18.03,83.22c-9.13,0-16.53-7.4-16.53-16.53s7.4-16.53,16.53-16.53"/>
      <path class="cls-4" d="m117.52,83.22c9.13,0,16.53-7.4,16.53-16.53,0-9.13-7.4-16.53-16.53-16.53"/>
      <path class="cls-6" d="m8.15,55.44C11.96,25.65,37.52,3.09,67.43,3c30.12-.09,55.93,22.62,59.67,52.63"/>
    </g>
    <path class="cls-2" d="m124.31,71.44c.46,2.58,2.79,17.19-7.02,30.83-9.72,13.51-24.12,16.02-26.75,16.43"/>
    <path class="cls-3" d="m94.89,118.76c0,2.45-3.81,3.03-8.35,3.03s-8.09-.58-8.09-3.03,3.68-4.43,8.22-4.43,8.22,1.99,8.22,4.43Z"/>
  </g>
</svg>